/* XPM */
static char *vcmiclient[] = {
/* columns rows colors chars-per-pixel */
"32 32 188 2 ",
"   c #010101",
".  c #090909",
"X  c #140600",
"o  c #180700",
"O  c #140A06",
"+  c #1B0901",
"@  c #1E120C",
"#  c #161414",
"$  c #1C1C1B",
"%  c #220B01",
"&  c #2B0E00",
"*  c #2E1002",
"=  c #2C140A",
"-  c #331507",
";  c #341609",
":  c #35180B",
">  c #221612",
",  c #221915",
"<  c #2C1C15",
"1  c #281F1A",
"2  c #351C10",
"3  c #391E11",
"4  c #3D2214",
"5  c #3C2519",
"6  c #252424",
"7  c #2D2D2C",
"8  c #3B2B24",
"9  c #3C302B",
"0  c #343333",
"q  c #3F3036",
"w  c #393837",
"e  c #3D3C3B",
"r  c #402215",
"t  c #422618",
"y  c #442B1E",
"u  c #482D1F",
"i  c #452D21",
"p  c #4A2F21",
"a  c #4D3325",
"s  c #4E372C",
"d  c #503729",
"f  c #52392C",
"g  c #423433",
"h  c #483C35",
"j  c #443438",
"k  c #443B3E",
"l  c #533E32",
"z  c #41403F",
"x  c #4B433E",
"c  c #514037",
"v  c #5D4236",
"b  c #53433B",
"n  c #5E4438",
"m  c #634F3F",
"M  c #695337",
"N  c #67523F",
"B  c #6A543D",
"V  c #6C583B",
"C  c #795F36",
"Z  c #725A3E",
"A  c #795F3E",
"S  c #413741",
"D  c #473C46",
"F  c #444242",
"G  c #4A4845",
"H  c #4C4B4B",
"J  c #5A4D46",
"K  c #54524F",
"L  c #5B504C",
"P  c #555454",
"I  c #5A5956",
"U  c #5B5B5B",
"Y  c #645143",
"T  c #6B5544",
"R  c #6F5A45",
"E  c #65544C",
"W  c #6D564B",
"Q  c #6A594F",
"!  c #735D46",
"~  c #6B5655",
"^  c #6D5A53",
"/  c #655D58",
"(  c #6C595B",
")  c #755E56",
"_  c #735F59",
"`  c #796143",
"'  c #75624E",
"]  c #7B624C",
"[  c #67625D",
"{  c #7B6356",
"}  c #71645E",
"|  c #7B665A",
" . c #7E695E",
".. c #715E60",
"X. c #656362",
"o. c #6A6762",
"O. c #6D6A66",
"+. c #6A6168",
"@. c #6D6B6B",
"#. c #726C67",
"$. c #726E6A",
"%. c #76726F",
"&. c #79726D",
"*. c #716F70",
"=. c #747473",
"-. c #7B7671",
";. c #7D7976",
":. c #7E7D7B",
">. c #80673C",
",. c #8D713F",
"<. c #9F7E37",
"1. c #816843",
"2. c #886D41",
"3. c #927745",
"4. c #826B5E",
"5. c #836E62",
"6. c #877166",
"7. c #887266",
"8. c #8B756A",
"9. c #8F796E",
"0. c #907A6F",
"q. c #857A73",
"w. c #827E79",
"e. c #927D73",
"r. c #A38234",
"t. c #A58439",
"y. c #AF8B3E",
"u. c #B08E39",
"i. c #BD9738",
"p. c #E3B101",
"a. c #CAA021",
"s. c #CEA43F",
"d. c #E4B437",
"f. c #E4B53E",
"g. c #F4C23D",
"h. c #A28343",
"j. c #A88741",
"k. c #B39040",
"l. c #BF9940",
"z. c #86837E",
"x. c #948177",
"c. c #94867E",
"v. c #99847A",
"b. c #9D897E",
"n. c #BE9C6E",
"m. c #D3AB6D",
"M. c #E3B76C",
"N. c #F0C26B",
"B. c #F0C273",
"V. c #858482",
"C. c #888682",
"Z. c #8C8985",
"A. c #8E8D8D",
"S. c #928C86",
"D. c #918F8C",
"F. c #95918D",
"G. c #959492",
"H. c #9A9792",
"J. c #9B9995",
"K. c #9E9B99",
"L. c #A18D82",
"P. c #A39086",
"I. c #A6948A",
"U. c #A9968C",
"Y. c #AB988E",
"T. c #AF9C92",
"R. c #A19E9A",
"E. c #A4A29E",
"W. c #B4A298",
"Q. c #A5A4A1",
"!. c #A9A7A3",
"~. c #ACA9A6",
"^. c #ADACAB",
"/. c #B1AEAB",
"(. c #B2B0AD",
"). c #B5B4B2",
"_. c #BAB9B7",
"`. c #BDBCBB",
"'. c #C4C3C3",
"]. c #C8C8C8",
"[. c #D1D0CE",
"{. c #D4D3D3",
"}. c #DADADA",
"|. c #E8E7E6",
" X c #EBEBEA",
".X c gray96",
"XX c #FDFDFC",
"oX c None",
/* pixels */
"oXoXoXoXoXoXoXoXoXoXoXoXoXoXoXoXoXoXoXoXoXoXoXoXoXoXoXoXoXoXoXoX",
"oXoXoXoXoXoXoXoXoXoXoXoXoXoXoXoXoXoXoXoXoXoXoXoXoXoXoXoXoXoXoXoX",
"oXoXoXoX0 I 0 oXoXoXoXoXoXoXoXoXoXoXoXoXoXoXoXoXoXoXw H oXoXoXoX",
"oXoXoXoX'.'.'.`.Q.D.:.+.P F F 6 6 w e H I @.:.Z.K.E.R.H.$.oXoXoX",
"oXoXoXoX).).`.`.`._.)./.(.(.(.(.(./.~.!.E.R.H.G.D.Z.S.C.o.oXoXoX",
"oXoXoXoXV.A.G.*.Z.K.^.).).^.~.Q.Q.E.K.K.J.F.C.-.$.$.S.S.K oXoXoX",
"oXoXoXoXX.@.P & : f E } #.&.q.&.-.&.&.&.&.q.c.I.W.S.z.G.w oXoXoX",
"oXoXoXoXH X.H = & * r n { 5.7.8.0.x.v.b.L.P.I.Y.T.q.G.H.$ oXoXoX",
"oXoXoXoX7 X.H = * & & : a W 5.6.7.9.x.x.x.L.L.I.U.q.R.F.oXoXoXoX",
"oXoXoXoXoXX.F , * & & & * 3 l { 5.6.8.0.x.x.b.L.P.-.Q.;.oXoXoXoX",
"oXoXoXoXoXI e 1 & & & & & & ; p T |  .5.8.0.0.x.x.V.Q.U oXoXoXoX",
"oXoXoXoX  F 0 # o & % o o o o & 3 8 g h ^ 5.J b x C.G.$ oXoXoXoX",
"oXoXoXB.4.7 6 B.{ % X N.g.g.] o % { g.B.g Q 4.g.B.U U B.4.oXoXoX",
"oXoXoXf.>.. $ d.` + M.y.A C f.) % A p.d.> 9 1.p.f.e e f.1.oXoXoX",
"oXoXoX| s._ m.h.k @ s.Z + o ) g + Z a.<.m._ s.t.s.7 6 s.] oXoXoX",
"oXoXoX  i.V i.' k > l.B = % o o % B l.B i.M l.R l.6 . i.! oXoXoX",
"oXoXoXoX_ u.3.+.C.1 k.B @ O n.^ % N y.g ,.u.Q N y.$   k.! oXoXoX",
"oXoXoXoX  j.Y '.}.F ^ j.j.t.2.j % Y j.o m j.X J j..   j.W oXoXoX",
"oXoXoXoXoX..S Q..XK.< ( Y Y k 5 2 j ~ o q ~ O S (   oX..D oXoXoX",
"oXoXoXoXoXoXoXK |.{.b i i y y i y 5 : * & & , 7 6 oXoXoXoXoXoXoX",
"oXoXoXoXoXoXoXoX_.[.&.a d a a a p p y 4 - - F e $ oXoXoXoXoXoXoX",
"oXoXoXoXoXoXoXoX@.(.H.c f d d a a p p u t L G.*.oXoXoXoXoXoXoXoX",
"oXoXoXoXoXoXoXoXoXE.E./ f f d d a a a a c ].}.*.oXoXoXoXoXoXoXoX",
"oXoXoXoXoXoXoXoXoXo.G.C.b f f f s d a s R.XX XoXoXoXoXoXoXoXoXoX",
"oXoXoXoXoXoXoXoXoXoXZ.Z.#.c f f f d f $.{. X=.oXoXoXoXoXoXoXoXoX",
"oXoXoXoXoXoXoXoXoXoXe z.w.O.c l f l [ E.).K.oXoXoXoXoXoXoXoXoXoX",
"oXoXoXoXoXoXoXoXoXoXoXP -.&.&.o.o.;.G.J.D.oXoXoXoXoXoXoXoXoXoXoX",
"oXoXoXoXoXoXoXoXoXoXoXoXK $.$.%.-.z.z.w.$ oXoXoXoXoXoXoXoXoXoXoX",
"oXoXoXoXoXoXoXoXoXoXoXoXoX7 I o.O.$.G oXoXoXoXoXoXoXoXoXoXoXoXoX",
"oXoXoXoXoXoXoXoXoXoXoXoXoXoXoXoX# oXoXoXoXoXoXoXoXoXoXoXoXoXoXoX",
"oXoXoXoXoXoXoXoXoXoXoXoXoXoXoXoXoXoXoXoXoXoXoXoXoXoXoXoXoXoXoXoX",
"oXoXoXoXoXoXoXoXoXoXoXoXoXoXoXoXoXoXoXoXoXoXoXoXoXoXoXoXoXoXoXoX"
};
